# xmcd
#
# Track frame offsets:
#	150
#	16181
#	33739
#	54762
#	69091
#	88868
#	126152
#	137585
#	151390
#	167593
#	184938
#	205965
#	220299
#	240043
#	277327
#	288860
#
# Disc length: 4033 seconds
#
# Revision: 1
# Processed by: cddbd v1.5.2PL0 Copyright (c) Steve Scherf et al.
# Submitted via: audiograbber 1.83.01
#
DISCID=de0fbf10
DTITLE=Mixed - Soft Hits Of The 70's - SDK9037
DYEAR=1900
DGENRE=
TTITLE0=Barry Manilow - Mandy
TTITLE1=Elton John - Daniel
TTITLE2=John Denver - Rocky Mountain High
TTITLE3=John Denver - Take Me Home, Country Roads
TTITLE4=Dan Fogelberg - Leader Of The Band
TTITLE5=Don McLean - American Pie
TTITLE6=Bread - Baby I'm A Want-You
TTITLE7=3 Dog Night - Joy To The World
TTITLE8=Barry Manilow - Mandy
TTITLE9=Elton John - Daniel
TTITLE10=John Denver - Rocky Mountain High
TTITLE11=John Denver - Take Me Home, Country Roads
TTITLE12=Dan Fogelberg - Leader Of The Band
TTITLE13=Don McLean - American Pie
TTITLE14=Bread - Baby I'm A Want-You
TTITLE15=3 Dog Night - Joy To The World
EXTD=
EXTT0=
EXTT1=
EXTT2=
EXTT3=
EXTT4=
EXTT5=
EXTT6=
EXTT7=
EXTT8=
EXTT9=
EXTT10=
EXTT11=
EXTT12=
EXTT13=
EXTT14=
EXTT15=
PLAYORDER=
